<?xml version="1.0" encoding="UTF-8" standalone="no"?>
<!-- Created with Inkscape (http://www.inkscape.org/) -->

<svg
   xmlns:dc="http://purl.org/dc/elements/1.1/"
   xmlns:cc="http://creativecommons.org/ns#"
   xmlns:rdf="http://www.w3.org/1999/02/22-rdf-syntax-ns#"
   xmlns:svg="http://www.w3.org/2000/svg"
   xmlns="http://www.w3.org/2000/svg"
   xmlns:xlink="http://www.w3.org/1999/xlink"
   xmlns:sodipodi="http://sodipodi.sourceforge.net/DTD/sodipodi-0.dtd"
   xmlns:inkscape="http://www.inkscape.org/namespaces/inkscape"
   width="180"
   height="78"
   viewBox="0 0 47.624999 20.637501"
   version="1.1"
   id="svg879"
   sodipodi:docname="Alle_Grafiken.svg"
   inkscape:version="0.92.5 (2060ec1f9f, 2020-04-08)"
   inkscape:export-filename="/home/bernd/Sprachen/Lazarus/64_bit/Meine_Komponenten/Switch/images/backbround_blue180.png"
   inkscape:export-xdpi="95.955559"
   inkscape:export-ydpi="95.955559">
  <defs
     id="defs873">
    <linearGradient
       inkscape:collect="always"
       id="linearGradient2624">
      <stop
         style="stop-color:#ffff00;stop-opacity:1;"
         offset="0"
         id="stop2620" />
      <stop
         style="stop-color:#00ff00;stop-opacity:1"
         offset="1"
         id="stop2622" />
    </linearGradient>
    <linearGradient
       inkscape:collect="always"
       id="linearGradient1074">
      <stop
         style="stop-color:#ffff00;stop-opacity:1;"
         offset="0"
         id="stop1070" />
      <stop
         style="stop-color:#c80000;stop-opacity:1"
         offset="1"
         id="stop1072" />
    </linearGradient>
    <clipPath
       clipPathUnits="userSpaceOnUse"
       id="clipPath875">
      <g
         id="use877"
         inkscape:label="Clip">
        <g
           inkscape:label="Clip"
           id="use879"
           style="fill:#ffff00">
          <rect
             inkscape:export-ydpi="25.400003"
             inkscape:export-xdpi="25.400003"
             rx="9.9747925"
             ry="9.5249996"
             y="51.731251"
             x="0.79374999"
             height="19.049999"
             width="46.037498"
             id="rect885"
             style="fill:#ffff00;fill-opacity:1;stroke-width:0.24993078" />
        </g>
      </g>
    </clipPath>
    <radialGradient
       inkscape:collect="always"
       xlink:href="#linearGradient1074"
       id="radialGradient1078"
       cx="-13.290187"
       cy="76.189468"
       fx="-13.290187"
       fy="76.189468"
       r="9.5249996"
       gradientUnits="userSpaceOnUse"
       gradientTransform="matrix(1.3952954,0.12665213,-0.1169614,1.288535,14.164776,-20.300098)" />
    <radialGradient
       inkscape:collect="always"
       xlink:href="#linearGradient2624"
       id="radialGradient2626"
       cx="20.960711"
       cy="75.798698"
       fx="20.960711"
       fy="75.798698"
       r="9.5249996"
       gradientUnits="userSpaceOnUse"
       gradientTransform="matrix(1.6916997,0.02440225,-0.02162245,1.4989889,-12.859565,-38.334195)" />
  </defs>
  <sodipodi:namedview
     id="base"
     pagecolor="#ffffff"
     bordercolor="#666666"
     borderopacity="1.0"
     inkscape:pageopacity="0.0"
     inkscape:pageshadow="2"
     inkscape:zoom="1.3792592"
     inkscape:cx="351.51892"
     inkscape:cy="-119.59096"
     inkscape:document-units="mm"
     inkscape:current-layer="layer1"
     showgrid="true"
     showguides="true"
     inkscape:window-width="1920"
     inkscape:window-height="1015"
     inkscape:window-x="0"
     inkscape:window-y="0"
     inkscape:window-maximized="1"
     units="px"
     fit-margin-top="0"
     fit-margin-left="0"
     fit-margin-right="0"
     fit-margin-bottom="0">
    <inkscape:grid
       type="xygrid"
       id="grid1424"
       originx="4.440892e-16"
       originy="-275.69583" />
  </sodipodi:namedview>
  <metadata
     id="metadata876">
    <rdf:RDF>
      <cc:Work
         rdf:about="">
        <dc:format>image/svg+xml</dc:format>
        <dc:type
           rdf:resource="http://purl.org/dc/dcmitype/StillImage" />
        <dc:title />
      </cc:Work>
    </rdf:RDF>
  </metadata>
  <g
     inkscape:label="Ebene 1"
     inkscape:groupmode="layer"
     id="layer1"
     transform="translate(0,-0.66666669)">
    <rect
       style="fill:#c80000;fill-opacity:1;stroke-width:0.26458332"
       id="rect1428"
       width="47.625"
       height="20.637501"
       x="-4.4408921e-16"
       y="0.66666669"
       ry="10.31875"
       rx="10.31875"
       inkscape:export-xdpi="25.400003"
       inkscape:export-ydpi="25.400003" />
    <circle
       style="fill:#ffff00;fill-opacity:1;stroke-width:0.26458332"
       id="path822"
       cx="-13.229084"
       cy="35.477451"
       r="9.5249996"
       inkscape:export-xdpi="96"
       inkscape:export-ydpi="96" />
    <g
       id="g1111"
       transform="matrix(0.81588471,0,0,0.86595507,-19.756244,29.087407)"
       style="fill:none;stroke:#fa0302;stroke-width:1.62467003;stroke-linecap:round">
      <path
         d="m 8,0.9 v 6"
         id="path1107"
         style="stroke:#fa0302;stroke-width:1.62467003"
         inkscape:connector-curvature="0" />
      <path
         d="M 11.250015,2.3850002 A 6.5000285,6.4982368 0 0 1 14.278545,9.6945059 6.5000285,6.4982368 0 0 1 8.0000005,14.510876 6.5000285,6.4982368 0 0 1 1.7214551,9.6945059 6.5000285,6.4982368 0 0 1 4.7499862,2.385"
         id="path1109"
         style="stroke:#fa0302;stroke-width:1.62467003"
         inkscape:connector-curvature="0" />
    </g>
    <circle
       style="fill:#ffffff;fill-opacity:1;stroke-width:0.26458332"
       id="path822-3"
       cx="-13.938487"
       cy="56.330513"
       r="9.5249996"
       inkscape:export-xdpi="96"
       inkscape:export-ydpi="96" />
    <path
       d="m -20.60657,56.82583 1.74321,-1.73 2.98836,2.965 6.47478,-6.425 1.74321,1.73 -8.21799,8.155 z"
       id="path1635"
       inkscape:connector-curvature="0"
       style="fill:#71c837;fill-rule:evenodd;stroke:#008000;stroke-width:0.49613601;stroke-opacity:0.964706" />
    <circle
       style="fill:#c80000;fill-opacity:1;stroke-width:0.26458332"
       id="path822-6"
       cx="202.33691"
       cy="37.517071"
       r="9.5249996"
       inkscape:export-xdpi="96"
       inkscape:export-ydpi="96"
       inkscape:export-filename="/home/bernd/Sprachen/Lazarus/64_bit/Meine_Komponenten/TFlexiSwitch/images/button_72_72.png" />
    <g
       id="g1069"
       inkscape:export-filename="/home/bernd/Sprachen/Lazarus/64_bit/Meine_Komponenten/TFlexiSwitch/images/tflexiswitch_200.png"
       inkscape:export-xdpi="25.043478"
       inkscape:export-ydpi="25.043478"
       transform="translate(24.839926,-28.9275)">
      <rect
         ry="1.3266329e-06"
         rx="7.9110413"
         y="5.9583302"
         x="137.58333"
         height="48.683334"
         width="48.683334"
         id="rect1050"
         style="fill:#ffffff;fill-opacity:1;stroke-width:0.37560004" />
      <g
         transform="translate(22.785077,-31.926667)"
         id="g1056">
        <rect
           style="fill:#00c800;fill-opacity:1;stroke-width:0.26458332"
           id="rect1428-3"
           width="47.625"
           height="20.637501"
           x="115.32742"
           y="51.114162"
           ry="10.31875"
           rx="10.31875"
           inkscape:export-xdpi="25.400003"
           inkscape:export-ydpi="25.400003" />
        <circle
           style="fill:#ffffff;fill-opacity:1;stroke-width:0.26458332"
           id="path822-7"
           cx="152.04538"
           cy="61.46645"
           r="9.5249996"
           inkscape:export-xdpi="96"
           inkscape:export-ydpi="96" />
        <path
           d="m 145.52083,61.52083 1.74321,-1.730001 2.98836,2.965001 6.47478,-6.425001 1.74321,1.730001 -8.21799,8.155 z"
           id="path1635-5"
           inkscape:connector-curvature="0"
           style="fill:#71c837;fill-rule:evenodd;stroke:#008000;stroke-width:0.49613601;stroke-opacity:0.964706" />
      </g>
    </g>
    <path
       style="fill:#c80000;fill-opacity:1;stroke-width:0.26458332"
       d="m 174.625,77.39583 c -5.71659,0 -10.31875,4.602162 -10.31875,10.31875 0,5.716587 4.60216,10.31875 10.31875,10.31875 h 26.9875 c 5.71659,0 10.31875,-4.602163 10.31875,-10.31875 0,-5.716588 -4.60216,-10.31875 -10.31875,-10.31875 z m 0.44959,0.79375 h 26.08832 c 5.52604,0 9.97459,4.24815 9.97459,9.525 0,5.27685 -4.44855,9.525 -9.97459,9.525 h -26.08832 c -5.52604,0 -9.97459,-4.24815 -9.97459,-9.525 0,-5.27685 4.44855,-9.525 9.97459,-9.525 z"
       id="rect1428-5"
       inkscape:export-xdpi="96"
       inkscape:export-ydpi="96"
       inkscape:connector-curvature="0" />
    <rect
       style="fill:#c80000;fill-opacity:1;stroke-width:0.26458332"
       id="rect1428-6"
       width="47.625"
       height="20.637501"
       x="164.04167"
       y="50.937496"
       ry="10.31875"
       rx="10.31875"
       inkscape:export-xdpi="25.400003"
       inkscape:export-ydpi="25.400003" />
    <circle
       style="fill:#ffffff;fill-opacity:1;stroke-width:0.26458332"
       id="path822-36"
       cx="17.4625"
       cy="38.237499"
       r="9.5249996"
       inkscape:export-xdpi="96"
       inkscape:export-ydpi="96" />
    <path
       style="fill:#00c800;fill-opacity:1;stroke-width:0.26458332"
       d="M 14.823637,46.297121 C 11.16651,45.571435 8.5520927,41.566916 9.2669336,37.785883 10.16507,33.035345 15.981817,30.3596 20.005216,32.846197 c 0.980158,0.605771 1.070915,0.823516 0.530262,1.272218 -0.274817,0.228078 -0.639274,0.173847 -1.521354,-0.226376 -4.050607,-1.837869 -8.424381,0.904913 -8.424381,5.282906 0,3.38336 2.432607,5.820834 5.809212,5.820834 3.197233,0 5.798811,-2.435579 5.815022,-5.443984 0.0042,-0.786452 0.175003,-1.237305 0.630837,-1.66554 l 0.625025,-0.587181 0.139794,1.042241 c 0.648161,4.832396 -3.876934,8.929913 -8.785996,7.955806 z m -0.53994,-6.194716 c -1.863664,-1.876186 -1.945192,-2.007486 -1.514146,-2.438532 0.431047,-0.431047 0.541163,-0.370884 2.045097,1.117357 l 1.589519,1.572933 4.227551,-4.221357 c 4.015863,-4.009978 4.250587,-4.198319 4.687608,-3.761299 0.43702,0.43702 0.228655,0.691741 -4.161176,5.086956 -2.541678,2.544794 -4.68502,4.626899 -4.762982,4.626899 -0.07796,0 -1.028124,-0.89233 -2.111471,-1.982957 z"
       id="path911"
       inkscape:connector-curvature="0"
       inkscape:export-xdpi="96"
       inkscape:export-ydpi="96" />
    <circle
       style="fill:#ffffff;fill-opacity:1;stroke-width:0.26458332"
       id="path822-5"
       cx="46.566666"
       cy="38.237499"
       r="9.5249996"
       inkscape:export-xdpi="96"
       inkscape:export-ydpi="96" />
    <path
       style="fill:#c80000;fill-opacity:1;stroke-width:0.27067518"
       d="m 41.149105,43.511479 -0.922279,-0.951551 2.148538,-2.161214 2.148539,-2.161214 -2.153618,-2.166324 -2.153618,-2.166324 1.008676,-1.008676 1.008677,-1.008676 2.166323,2.153618 2.166324,2.153617 2.166324,-2.153617 2.166323,-2.153618 1.008677,1.008676 1.008676,1.008676 -2.153618,2.166324 -2.153618,2.166324 2.153618,2.166324 2.153618,2.166323 -1.008676,1.008677 -1.008677,1.008676 -2.166323,-2.153618 -2.166324,-2.153618 -2.103722,2.091383 c -1.157045,1.15026 -2.168485,2.091382 -2.24764,2.091382 -0.07915,0 -0.558947,-0.428197 -1.0662,-0.95155 z"
       id="path1534"
       inkscape:connector-curvature="0" />
    <circle
       style="fill:#ffffff;fill-opacity:1;stroke-width:0.26458332"
       id="path822-9"
       cx="73.025002"
       cy="38.237499"
       r="9.5249996"
       inkscape:export-xdpi="96"
       inkscape:export-ydpi="96"
       inkscape:export-filename="/home/bernd/Sprachen/Lazarus/64_bit/Meine_Komponenten/TestSwitch/Images/add4.png" />
    <g
       transform="matrix(0.26458333,0,0,0.26458333,64.426042,29.373959)"
       id="g4025">
      <path
         style="fill:#c8d8ef"
         d="M 23.508035,55.790697 C 23.254799,55.080814 22.924394,51.575 22.773803,48 L 22.5,41.5 15,41 7.5,40.5 V 32 23.5 L 15,23 22.5,22.5 23,15 23.5,7.5 H 32 40.5 L 41,15 41.5,22.5 49,23 56.5,23.5 V 32 40.5 L 49,41 41.5,41.5 41,49 l -0.5,7.5 -8.265768,0.290697 c -6.059526,0.213106 -8.388662,-0.05381 -8.726197,-1 z"
         id="path4039"
         inkscape:connector-curvature="0" />
      <path
         style="fill:#adccfb"
         d="M 24.571429,55.428571 C 23.468783,54.325926 23,51.939394 23,47.428571 V 41 H 16.571429 C 8.2696959,41 7,39.806107 7,32 7,24.193893 8.2696959,23 16.571429,23 H 23 V 16.571429 C 23,8.2696959 24.193893,7 32,7 c 7.806107,0 9,1.2696959 9,9.571429 V 23 h 6.428571 C 55.730304,23 57,24.193893 57,32 c 0,7.806107 -1.269696,9 -9.571429,9 H 41 v 6.428571 C 41,55.730304 39.806107,57 32,57 28.008658,57 25.642276,56.499419 24.571429,55.428571 Z M 36,12.979676 C 36,12.440854 34.2,12 32,12 c -3.783759,0 -4,0.163279 -4,3.020324 v 3.020324 L 32,16 c 2.2,-1.122356 4,-2.481502 4,-3.020324 z"
         id="path4037"
         inkscape:connector-curvature="0" />
      <path
         style="fill:#b8c9de"
         d="M 24.571429,55.428571 C 23.468783,54.325926 23,51.939394 23,47.428571 V 41 H 16.571429 C 8.2696959,41 7,39.806107 7,32 7,24.193893 8.2696959,23 16.571429,23 H 23 V 16.571429 C 23,8.2696959 24.193893,7 32,7 c 7.806107,0 9,1.2696959 9,9.571429 V 23 h 6.428571 C 55.730304,23 57,24.193893 57,32 c 0,7.806107 -1.269696,9 -9.571429,9 H 41 v 6.428571 C 41,55.730304 39.806107,57 32,57 28.008658,57 25.642276,56.499419 24.571429,55.428571 Z M 29.211843,32.540209 36.5,29.080417 V 20.290209 11.5 L 31.75,11.195209 27,10.890418 v 8.054791 c 0,9.072111 0.598714,8.540149 -9.13372,8.115371 -6.427733,-0.280542 -7.356022,0.515333 -6.420085,5.504305 C 12.076593,35.925197 12.197688,36 17.007156,36 c 3.536987,0 6.961534,-0.970792 12.204687,-3.459791 z"
         id="path4035"
         inkscape:connector-curvature="0" />
      <path
         style="fill:#9ac1fd"
         d="M 24.509341,54.794101 C 24.255386,54.082346 23.924394,50.575 23.773803,47 L 23.5,40.5 16,40 8.5,39.5 V 32 24.5 L 16,24 23.5,23.5 24,16 24.5,8.5 H 32 39.5 L 40,16 40.5,23.5 48,24 55.5,24.5 V 32 39.5 L 48,40 40.5,40.5 40,48 l -0.5,7.5 -7.264461,0.294101 c -5.25459,0.212732 -7.392211,-0.06394 -7.726198,-1 z M 29.211843,32.540209 36.5,29.080417 V 20.290209 11.5 L 31.75,11.195209 27,10.890418 v 8.054791 c 0,9.072111 0.598714,8.540149 -9.13372,8.115371 -6.427733,-0.280542 -7.356022,0.515333 -6.420085,5.504305 C 12.076593,35.925197 12.197688,36 17.007156,36 c 3.536987,0 6.961534,-0.970792 12.204687,-3.459791 z"
         id="path4033"
         inkscape:connector-curvature="0" />
      <path
         style="fill:#8db8f9"
         d="M 24.509341,54.794101 C 24.255386,54.082346 23.924394,50.575 23.773803,47 L 23.5,40.5 16,40 8.5,39.5 V 32 24.5 L 16,24 23.5,23.5 24,16 24.5,8.5 H 32 39.5 L 40,16 40.5,23.5 48,24 55.5,24.5 V 32 39.5 L 48,40 40.5,40.5 40,48 l -0.5,7.5 -7.264461,0.294101 c -5.25459,0.212732 -7.392211,-0.06394 -7.726198,-1 z M 32.38816,41.351942 c 1.900807,-0.906432 3.673946,-2.481432 3.940307,-3.5 C 36.667051,36.557197 37.735494,36 39.879629,36 44.235147,36 52,32.028472 52,29.800734 52,28.309687 51.151305,28 47.0651,28 44.350904,28 40.975904,27.561138 39.5651,27.024751 37.125296,26.097139 37,25.681944 37,18.524751 V 11 H 32.042064 27.084129 L 26.792064,18.75 26.5,26.5 18.696966,26.793019 10.893931,27.086038 11.196966,31.793019 11.5,36.5 l 7.783534,0.292668 c 7.737582,0.29094 7.787025,0.310127 8.375,3.25 0.695256,3.476282 0.372642,3.386975 4.729626,1.309274 z"
         id="path4031"
         inkscape:connector-curvature="0" />
      <path
         style="fill:#88a7d1"
         d="M 24.509341,54.794101 C 24.255386,54.082346 23.924394,50.575 23.773803,47 L 23.5,40.5 16,40 8.5,39.5 V 32 24.5 L 16,24 23.5,23.5 24,16 24.5,8.5 H 32 39.5 L 40,16 40.5,23.5 48,24 55.5,24.5 V 32 39.5 L 48,40 40.5,40.5 40,48 l -0.5,7.5 -7.264461,0.294101 c -5.25459,0.212732 -7.392211,-0.06394 -7.726198,-1 z m 12.29387,-8.755753 c 0.166766,-3.553909 0.784366,-7.041409 1.372445,-7.75 C 38.858354,37.465746 41.731173,37 46.122445,37 H 53 v -5 -5 h -6.8 c -3.955556,0 -7.301961,-0.501961 -8,-1.2 C 37.501961,25.101961 37,21.755556 37,17.8 V 11 h -5 -5 v 6.8 c 0,3.955556 -0.501961,7.301961 -1.2,8 -0.698039,0.698039 -4.044444,1.2 -8,1.2 H 11 v 5 5 h 6.8 c 3.955556,0 7.301961,0.501961 8,1.2 0.672464,0.672464 1.2,3.896296 1.2,7.333333 0,3.373334 0.321175,6.454508 0.713721,6.847055 0.392547,0.392547 2.530047,0.580047 4.75,0.416667 L 36.5,52.5 Z"
         id="path4029"
         inkscape:connector-curvature="0" />
      <path
         style="fill:#6f99d1"
         d="m 25,48.2 c 0,-3.955556 -0.501961,-7.301961 -1.2,-8 C 23.101961,39.501961 19.755556,39 15.8,39 H 9 v -7 -7 h 6.877555 c 4.355117,0 7.265768,-0.467767 7.936036,-1.275391 0.582164,-0.701465 1.243328,-3.513965 1.469252,-6.25 C 25.600374,13.629195 25.671641,13.975446 25.596808,19 L 25.5,25.5 18,26 l -7.5,0.5 -0.31105,4.903252 c -0.2058889,3.245537 0.132196,5.184348 1,5.734687 0.721077,0.45729 4.339977,0.838326 8.041998,0.846748 7.592936,0.01727 7.505944,-0.0861 8.007739,9.515313 L 27.5,52.5 h 4.5 4.5 l 0.303211,-6.461652 c 0.166766,-3.553909 0.784366,-7.041409 1.372445,-7.75 C 38.858354,37.465746 41.731173,37 46.122445,37 H 53 V 32.094779 27.189558 L 45.75,26.344779 38.5,25.5 38,18.005584 C 37.508262,10.635007 37.450427,10.500638 34.5,9.8738989 31.597083,9.2572522 31.621354,9.2328008 35.25,9.1183148 L 39,9 v 6.8 c 0,3.955556 0.501961,7.301961 1.2,8 0.698039,0.698039 4.044444,1.2 8,1.2 H 55 v 7 7 h -6.8 c -3.955556,0 -7.301961,0.501961 -8,1.2 -0.698039,0.698039 -1.2,4.044444 -1.2,8 V 55 H 32 25 Z M 25,10.5 C 25,9.675 25.7301,9 26.622445,9 27.951235,9 28.019571,9.2714922 27,10.5 26.315311,11.325 25.585211,12 25.377555,12 25.1699,12 25,11.325 25,10.5 Z"
         id="path4027"
         inkscape:connector-curvature="0" />
    </g>
    <circle
       style="fill:#ffffff;fill-opacity:1;stroke-width:0.26458332"
       id="path822-1"
       cx="94.191666"
       cy="38.237499"
       r="9.5249996"
       inkscape:export-xdpi="96"
       inkscape:export-ydpi="96" />
    <g
       transform="matrix(0.26458333,0,0,0.26458333,85.559641,29.282597)"
       id="g4677">
      <path
         style="fill:#a9cafb"
         d="M 7.4284922,39.67425 C 7.1411582,38.925469 7.0397017,34.979944 7.2030333,30.906415 L 7.5,23.5 H 32 56.5 V 32 40.5 L 32.225459,40.767834 C 12.484169,40.985651 7.8533552,40.781425 7.4284922,39.67425 Z"
         id="path4691"
         inkscape:connector-curvature="0" />
      <path
         style="fill:#b8c9de"
         d="M 7.4284922,39.67425 C 7.1411582,38.925469 7.0397017,34.979944 7.2030333,30.906415 L 7.5,23.5 H 32 56.5 V 32 40.5 L 32.225459,40.767834 C 12.484169,40.985651 7.8533552,40.781425 7.4284922,39.67425 Z M 31.922827,32.100904 39.345654,28.300788 26.182748,27.585246 c -7.239599,-0.393549 -13.617371,-0.434668 -14.172827,-0.09138 -1.121032,0.692835 -1.341344,4.47888 -0.402932,6.924344 0.465467,1.212988 2.039251,1.570248 6.75,1.532297 5.086586,-0.04098 7.419528,-0.703002 13.565838,-3.849606 z"
         id="path4689"
         inkscape:connector-curvature="0" />
      <path
         style="fill:#9bc2fd"
         d="M 8.4242379,38.663163 C 8.1342872,37.907564 8.0327175,34.411743 8.1985274,30.894673 L 8.5,24.5 H 32 55.5 V 32 39.5 L 32.225711,39.76849 C 13.226478,39.987664 8.8545873,39.784635 8.4242379,38.663163 Z M 31.922827,32.100904 39.345654,28.300788 26.182748,27.585246 c -7.239599,-0.393549 -13.617371,-0.434668 -14.172827,-0.09138 -1.121032,0.692835 -1.341344,4.47888 -0.402932,6.924344 0.465467,1.212988 2.039251,1.570248 6.75,1.532297 5.086586,-0.04098 7.419528,-0.703002 13.565838,-3.849606 z"
         id="path4687"
         inkscape:connector-curvature="0" />
      <path
         style="fill:#91baf7"
         d="M 8.4242379,38.663163 C 8.1342872,37.907564 8.0327175,34.411743 8.1985274,30.894673 L 8.5,24.5 H 32 55.5 V 32 39.5 L 32.225711,39.76849 C 13.226478,39.987664 8.8545873,39.784635 8.4242379,38.663163 Z M 47.25,33.348667 c 8.366444,-4.196183 6.678204,-5.052786 -11.5,-5.835033 -8.9375,-0.3846 -18.05,-0.545004 -20.25,-0.356453 -3.724106,0.319174 -4.022103,0.573549 -4.320459,3.688015 -0.580191,6.056489 -0.797317,5.983066 15.996489,5.409341 13.53137,-0.462271 15.879625,-0.8022 20.07397,-2.90587 z"
         id="path4685"
         inkscape:connector-curvature="0" />
      <path
         style="fill:#86a6d0"
         d="M 8.4242379,38.663163 C 8.1342872,37.907564 8.0327175,34.411743 8.1985274,30.894673 L 8.5,24.5 H 32 55.5 V 32 39.5 L 32.225711,39.76849 C 13.226478,39.987664 8.8545873,39.784635 8.4242379,38.663163 Z M 52.5,32 V 27.5 L 31.75,27.229712 11,26.959423 V 32 37.040577 L 31.75,36.770288 52.5,36.5 Z"
         id="path4683"
         inkscape:connector-curvature="0" />
      <path
         style="fill:#79a3dd"
         d="m 9,32 v -7 h 23 23 v 7 7 H 32 9 Z m 43.5,0 v -4.5 l -20,-0.751047 C 21.5,26.335878 11.9375,26.209254 11.25,26.467569 9.9236934,26.965901 9.625172,30.999111 10.635495,34.769918 L 11.24368,37.039835 31.87184,36.769918 52.5,36.5 Z"
         id="path4681"
         inkscape:connector-curvature="0" />
      <path
         style="fill:#6f97cd"
         d="m 9,32 v -7 h 23 23 v 7 7 H 32 9 Z m 43.8,4.8 c 1.639249,-1.639249 1.517236,-8.291828 -0.17788,-9.69865 -0.959236,-0.796094 -7.5676,-1.061172 -21.75,-0.872444 L 10.5,26.5 10.186912,30.864404 C 9.6504854,38.34212 8.6397112,38 31.268615,38 45.748581,38 51.945363,37.654637 52.8,36.8 Z"
         id="path4679"
         inkscape:connector-curvature="0" />
    </g>
    <circle
       style="fill:url(#radialGradient1078);fill-opacity:1;stroke-width:0.26458332;stroke:none;stroke-opacity:1"
       id="path822-2"
       cx="-13.290187"
       cy="76.189468"
       r="9.5249996"
       inkscape:export-xdpi="96"
       inkscape:export-ydpi="96" />
    <circle
       style="fill:url(#radialGradient2626);fill-opacity:1;stroke-width:0.26458332"
       id="path822-62"
       cx="20.960711"
       cy="75.798698"
       r="9.5249996"
       inkscape:export-xdpi="96"
       inkscape:export-ydpi="96" />
  </g>
</svg>
